# This file uses centimeters as units for non-parametric coordinates.

mtllib Pinball_Circle.mtl
g default
v 1.902114 0.618034 -0.000000
v 1.618035 1.175571 -0.000000
v 1.175571 1.618035 -0.000000
v 0.618034 1.902114 -0.000000
v 0.000000 2.000001 -0.000000
v -0.618034 1.902114 -0.000000
v -1.175571 1.618035 -0.000000
v -1.618034 1.175571 -0.000000
v -1.902114 0.618034 -0.000000
v -2.000000 0.000000 0.000000
v -1.902114 -0.618034 0.000000
v -1.618034 -1.175571 0.000000
v -1.175571 -1.618034 0.000000
v -0.618034 -1.902113 0.000000
v -0.000000 -2.000000 0.000000
v 0.618034 -1.902113 0.000000
v 1.175570 -1.618034 0.000000
v 1.618034 -1.175571 0.000000
v 1.902113 -0.618034 0.000000
v 2.000000 0.000000 0.000000
v 0.000000 -0.000000 0.000000
vt 0.000000 0.500000
vt 0.050000 0.500000
vt 0.100000 0.500000
vt 0.150000 0.500000
vt 0.200000 0.500000
vt 0.250000 0.500000
vt 0.300000 0.500000
vt 0.350000 0.500000
vt 0.400000 0.500000
vt 0.450000 0.500000
vt 0.500000 0.500000
vt 0.550000 0.500000
vt 0.600000 0.500000
vt 0.650000 0.500000
vt 0.700000 0.500000
vt 0.750000 0.500000
vt 0.800000 0.500000
vt 0.850000 0.500000
vt 0.900000 0.500000
vt 0.950000 0.500000
vt 1.000000 0.500000
vt 0.025000 0.000000
vt 0.075000 0.000000
vt 0.125000 0.000000
vt 0.175000 0.000000
vt 0.225000 0.000000
vt 0.275000 0.000000
vt 0.325000 0.000000
vt 0.375000 0.000000
vt 0.425000 0.000000
vt 0.475000 0.000000
vt 0.525000 0.000000
vt 0.575000 0.000000
vt 0.625000 0.000000
vt 0.675000 0.000000
vt 0.725000 0.000000
vt 0.775000 0.000000
vt 0.825000 0.000000
vt 0.875000 0.000000
vt 0.925000 0.000000
vt 0.975000 0.000000
vn 0.000000 0.000000 1.000000
vn 0.000000 0.000000 1.000000
vn 0.000000 0.000000 1.000000
vn 0.000000 0.000000 1.000000
vn 0.000000 0.000000 1.000000
vn -0.000000 0.000000 1.000000
vn -0.000000 0.000000 1.000000
vn 0.000000 0.000000 1.000000
vn 0.000000 0.000000 1.000000
vn 0.000000 0.000000 1.000000
vn 0.000000 0.000000 1.000000
vn -0.000000 0.000000 1.000000
vn -0.000000 0.000000 1.000000
vn 0.000000 0.000000 1.000000
vn 0.000000 0.000000 1.000000
vn 0.000000 0.000000 1.000000
vn 0.000000 0.000000 1.000000
vn -0.000000 0.000000 1.000000
vn -0.000000 0.000000 1.000000
vn 0.000000 0.000000 1.000000
vn 0.000000 0.000000 1.000000
s 1
g pSphere1
usemtl initialShadingGroup
f 2/2/1 21/22/2 1/1/3
f 3/3/4 21/23/2 2/2/1
f 4/4/5 21/24/2 3/3/4
f 5/5/6 21/25/2 4/4/5
f 6/6/7 21/26/2 5/5/6
f 7/7/8 21/27/2 6/6/7
f 8/8/9 21/28/2 7/7/8
f 9/9/10 21/29/2 8/8/9
f 10/10/11 21/30/2 9/9/10
f 11/11/12 21/31/2 10/10/11
f 12/12/13 21/32/2 11/11/12
f 13/13/14 21/33/2 12/12/13
f 14/14/15 21/34/2 13/13/14
f 15/15/16 21/35/2 14/14/15
f 16/16/17 21/36/2 15/15/16
f 17/17/18 21/37/2 16/16/17
f 18/18/19 21/38/2 17/17/18
f 19/19/20 21/39/2 18/18/19
f 20/20/21 21/40/2 19/19/20
f 1/21/3 21/41/2 20/20/21
