# This file uses centimeters as units for non-parametric coordinates.

mtllib Pinball_Spring.mtl
g default
v -1.055474 6.038784 0.000000
v 0.638228 4.345082 0.000000
v -0.632048 6.462209 0.000000
v 1.061653 4.768508 0.000000
vt 0.000000 0.000000
vt 1.000000 0.000000
vt 0.000000 0.250000
vt 1.000000 0.250000
vn 0.000000 0.000000 1.000000
vn 0.000000 0.000000 1.000000
vn 0.000000 0.000000 1.000000
vn 0.000000 0.000000 1.000000
s 1
g pPlane1
usemtl initialShadingGroup
f 1/1/1 2/2/2 3/3/3
f 3/3/3 2/2/2 4/4/4
g default
v -2.000000 0.000000 0.000000
v 2.000000 0.000000 0.000000
v -2.000000 1.000000 0.000000
v 2.000000 1.000000 0.000000
vt 0.000000 0.000000
vt 1.000000 0.000000
vt 0.000000 0.250000
vt 1.000000 0.250000
vn 0.000000 0.000000 1.000000
vn 0.000000 0.000000 1.000000
vn 0.000000 0.000000 1.000000
vn 0.000000 0.000000 1.000000
s 1
g pasted__pPlane1 group1
usemtl initialShadingGroup
f 5/5/5 6/6/6 7/7/7
f 7/7/7 6/6/6 8/8/8
g default
v -2.000000 7.000000 0.000000
v 2.000000 7.000000 0.000000
v -2.000000 8.000000 0.000000
v 2.000000 8.000000 0.000000
vt 0.000000 0.000000
vt 1.000000 0.000000
vt 0.000000 0.250000
vt 1.000000 0.250000
vn 0.000000 0.000000 1.000000
vn 0.000000 0.000000 1.000000
vn 0.000000 0.000000 1.000000
vn 0.000000 0.000000 1.000000
s 1
g pasted__pPlane1 group2
usemtl initialShadingGroup
f 9/9/9 10/10/10 11/11/11
f 11/11/11 10/10/10 12/12/12
g default
v -0.659090 5.596821 0.000000
v 1.034612 7.290523 0.000000
v -1.082515 6.020246 0.000000
v 0.611186 7.713948 0.000000
vt 0.000000 0.000000
vt 1.000000 0.000000
vt 0.000000 0.250000
vt 1.000000 0.250000
vn 0.000000 0.000000 1.000000
vn 0.000000 0.000000 1.000000
vn 0.000000 0.000000 1.000000
vn 0.000000 0.000000 1.000000
s 1
g pasted__pPlane1 group3
usemtl initialShadingGroup
f 13/13/13 14/14/14 15/15/15
f 15/15/15 14/14/14 16/16/16
g default
v -1.055474 3.493582 0.000000
v 0.638228 1.799881 0.000000
v -0.632048 3.917008 0.000000
v 1.061653 2.223306 0.000000
vt 0.000000 0.000000
vt 1.000000 0.000000
vt 0.000000 0.250000
vt 1.000000 0.250000
vn 0.000000 0.000000 1.000000
vn 0.000000 0.000000 1.000000
vn 0.000000 0.000000 1.000000
vn 0.000000 0.000000 1.000000
s 1
g pasted__pPlane1 group4
usemtl initialShadingGroup
f 17/17/17 18/18/18 19/19/19
f 19/19/19 18/18/18 20/20/20
g default
v -0.659090 0.527280 0.000000
v 1.034612 2.220982 0.000000
v -1.082515 0.950705 0.000000
v 0.611186 2.644407 0.000000
vt 0.000000 0.000000
vt 1.000000 0.000000
vt 0.000000 0.250000
vt 1.000000 0.250000
vn 0.000000 0.000000 1.000000
vn 0.000000 0.000000 1.000000
vn 0.000000 0.000000 1.000000
vn 0.000000 0.000000 1.000000
s 1
g group4 pasted__pasted__pPlane1 pasted__group3
usemtl initialShadingGroup
f 21/21/21 22/22/22 23/23/23
f 23/23/23 22/22/22 24/24/24
g default
v -0.659090 3.072482 0.000000
v 1.034612 4.766183 0.000000
v -1.082515 3.495907 0.000000
v 0.611186 5.189609 0.000000
vt 0.000000 0.000000
vt 1.000000 0.000000
vt 0.000000 0.250000
vt 1.000000 0.250000
vn 0.000000 0.000000 1.000000
vn 0.000000 0.000000 1.000000
vn 0.000000 0.000000 1.000000
vn 0.000000 0.000000 1.000000
s 1
g pasted__pasted__pPlane1 pasted__group3 group5
usemtl initialShadingGroup
f 25/25/25 26/26/26 27/27/27
f 27/27/27 26/26/26 28/28/28
